<?xml version="1.0" standalone="no"?>
<!DOCTYPE svg PUBLIC "-//W3C//DTD SVG 20010904//EN"
 "http://www.w3.org/TR/2001/REC-SVG-20010904/DTD/svg10.dtd">
<svg version="1.0" xmlns="http://www.w3.org/2000/svg"
 width="1545.000000pt" height="1545.000000pt" viewBox="0 0 1545.000000 1545.000000"
 preserveAspectRatio="xMidYMid meet">
<metadata>
Created by potrace 1.14, written by Peter Selinger 2001-2017
</metadata>
<g transform="translate(0.000000,1545.000000) scale(0.100000,-0.100000)"
fill="#000000" stroke="none">
<path d="M7697 11674 c-1 -1 -144 -5 -317 -8 -383 -9 -471 -13 -715 -31 -33
-2 -96 -7 -140 -10 -44 -3 -96 -8 -115 -10 -64 -7 -146 -15 -211 -20 -35 -3
-80 -7 -99 -10 -19 -2 -63 -7 -98 -11 -35 -3 -71 -7 -80 -9 -26 -4 -92 -14
-142 -20 -25 -3 -54 -7 -65 -9 -11 -2 -47 -7 -80 -11 -32 -3 -62 -8 -65 -10
-3 -2 -34 -6 -70 -10 -36 -4 -67 -8 -70 -10 -3 -2 -25 -6 -50 -9 -25 -3 -83
-13 -130 -21 -47 -9 -108 -20 -136 -25 -29 -5 -110 -21 -180 -35 -71 -15 -142
-29 -159 -32 -16 -2 -48 -9 -70 -15 -22 -6 -53 -12 -70 -15 -16 -3 -160 -38
-320 -79 -159 -41 -298 -76 -308 -78 -70 -18 -578 -179 -625 -198 -15 -6 -31
-12 -37 -14 -36 -9 -418 -156 -477 -183 -25 -11 -67 -29 -94 -39 -27 -11 -85
-36 -129 -57 -44 -20 -109 -51 -145 -67 -184 -85 -550 -279 -675 -359 -119
-76 -342 -223 -399 -264 -60 -43 -308 -238 -343 -269 -527 -476 -822 -894
-976 -1387 -43 -135 -65 -237 -86 -389 -11 -83 -12 -398 -1 -470 5 -30 11 -73
14 -95 8 -55 15 -93 28 -140 5 -22 12 -51 15 -65 14 -83 122 -362 181 -470 13
-25 40 -74 60 -110 47 -87 213 -333 242 -360 6 -6 88 -105 110 -134 33 -44
330 -337 405 -400 44 -37 94 -79 110 -93 143 -121 497 -366 710 -490 228 -132
500 -273 690 -358 61 -26 142 -62 180 -80 321 -146 926 -353 1385 -475 47 -12
96 -26 110 -30 69 -23 604 -141 835 -184 37 -7 261 -46 295 -51 211 -33 263
-41 345 -51 28 -3 58 -8 68 -10 10 -2 45 -6 78 -9 33 -4 69 -8 79 -10 10 -2
50 -7 87 -10 37 -4 76 -9 85 -10 9 -2 49 -6 90 -10 40 -3 91 -8 113 -10 161
-16 237 -22 365 -30 58 -4 128 -8 155 -10 350 -25 1485 -26 1735 0 19 2 89 7
155 10 66 4 134 9 150 10 17 2 64 6 105 9 41 4 95 9 120 11 25 3 74 7 110 10
36 3 81 7 100 10 39 5 168 21 245 30 45 5 213 28 305 41 19 3 91 14 160 26 69
11 139 22 155 25 17 2 41 6 55 9 14 3 61 11 105 19 44 8 89 17 100 19 1101
219 2043 537 2835 959 309 164 639 376 888 570 540 422 911 879 1107 1367 131
325 181 655 151 985 -97 1057 -1000 2034 -2541 2751 -403 187 -1002 407 -1415
518 -30 8 -113 31 -185 51 -71 19 -227 58 -345 85 -118 28 -233 55 -255 60
-44 11 -439 86 -495 95 -19 3 -46 7 -60 10 -25 5 -64 11 -110 19 -14 2 -47 7
-75 11 -27 4 -59 9 -70 11 -11 1 -38 5 -60 8 -22 3 -56 8 -75 11 -19 2 -55 7
-80 10 -25 3 -52 8 -60 10 -8 2 -45 7 -82 10 -37 3 -76 8 -87 10 -11 2 -48 6
-83 10 -35 3 -79 8 -98 10 -19 2 -71 7 -115 11 -44 3 -93 8 -110 9 -67 7 -193
16 -410 30 -49 3 -119 8 -155 10 -36 2 -207 7 -380 11 -173 3 -332 7 -353 8
-21 1 -39 1 -40 0z m658 -639 c208 -8 453 -22 530 -30 22 -3 74 -7 115 -10 41
-3 98 -7 125 -10 28 -3 70 -8 95 -10 86 -8 165 -16 200 -20 19 -2 58 -7 85
-10 28 -3 66 -8 85 -11 19 -2 53 -7 75 -9 57 -7 107 -14 210 -30 50 -8 108
-16 130 -20 22 -3 105 -17 185 -31 80 -14 159 -28 175 -31 17 -2 62 -11 100
-20 39 -8 81 -17 95 -19 14 -3 88 -18 165 -35 77 -17 167 -37 200 -44 199 -44
658 -172 750 -209 130 -54 165 -139 91 -226 -67 -81 -406 -337 -591 -447 -11
-6 -67 -41 -125 -76 -220 -136 -434 -254 -755 -415 -775 -389 -2135 -888
-2825 -1037 -8 -2 -42 -10 -75 -18 -33 -9 -85 -18 -115 -22 -30 -4 -62 -9 -70
-10 -153 -27 -291 -33 -465 -20 -387 29 -627 232 -661 560 -11 102 -5 266 11
325 2 8 7 31 10 50 11 67 55 227 91 331 91 264 326 790 390 876 13 17 24 34
24 38 0 8 79 123 125 182 91 114 250 256 345 309 19 10 42 24 50 30 55 40 236
95 389 118 87 14 496 14 836 1z m-3167 -273 c23 -16 27 -27 26 -66 0 -51 -19
-82 -139 -226 -163 -196 -251 -310 -411 -530 -192 -264 -418 -597 -570 -842
-43 -70 -91 -147 -106 -170 -15 -24 -31 -50 -35 -58 -4 -8 -24 -44 -46 -79
-52 -85 -235 -400 -277 -476 -18 -33 -52 -94 -75 -135 -23 -41 -61 -111 -85
-155 -23 -44 -50 -93 -60 -110 -54 -93 -431 -841 -528 -1045 -115 -244 -141
-302 -229 -495 -127 -281 -124 -275 -177 -399 -56 -131 -99 -218 -126 -255
-49 -70 -139 -75 -247 -16 -72 39 -239 147 -309 199 -23 17 -55 40 -70 51
-174 124 -447 375 -580 535 -350 418 -499 790 -506 1260 -1 78 9 217 17 230 2
3 6 23 9 45 40 255 205 594 422 865 74 93 336 359 424 432 491 405 1058 719
1790 993 239 89 634 219 682 225 4 0 27 8 50 16 65 23 481 128 668 169 91 19
175 38 187 40 13 3 49 8 80 11 32 4 59 8 61 9 2 1 32 1 68 0 48 -2 73 -8 92
-23z m8122 -999 c51 -23 308 -193 424 -280 416 -313 719 -656 891 -1008 58
-118 119 -273 129 -328 2 -12 9 -40 14 -62 6 -22 13 -58 16 -80 4 -22 8 -51
11 -65 13 -63 20 -306 11 -370 -2 -14 -7 -48 -10 -75 -60 -437 -334 -897 -772
-1292 -493 -445 -1179 -827 -2024 -1126 -231 -82 -594 -195 -750 -232 -8 -2
-55 -15 -105 -28 -268 -73 -658 -155 -760 -160 -93 -5 -154 27 -155 81 0 45
29 90 195 297 417 523 713 950 1097 1582 92 153 328 560 328 567 0 2 22 41 48
87 27 46 76 136 109 199 34 63 89 167 123 230 74 139 377 746 442 885 26 55
69 147 96 205 111 236 296 647 324 720 26 67 102 211 123 230 50 47 123 56
195 23z m-4590 -2527 c41 -4 86 -8 100 -11 72 -14 89 -18 135 -32 224 -70 371
-219 421 -429 17 -73 23 -255 11 -355 -17 -143 -110 -472 -175 -621 -11 -23
-27 -63 -37 -88 -27 -66 -55 -131 -71 -164 -8 -16 -14 -33 -14 -37 0 -19 -144
-307 -201 -401 -201 -333 -441 -549 -704 -631 -75 -23 -125 -35 -245 -54 -83
-14 -836 -5 -1054 12 -23 2 -97 6 -166 10 -69 4 -132 8 -140 10 -8 1 -62 6
-120 10 -58 4 -112 9 -120 10 -8 2 -53 6 -99 10 -47 4 -92 8 -100 10 -9 1 -43
6 -76 9 -97 11 -228 27 -255 31 -14 2 -63 9 -110 15 -93 12 -132 18 -170 25
-14 3 -38 7 -55 9 -16 3 -73 12 -125 21 -52 9 -108 18 -125 21 -16 3 -61 11
-100 19 -38 8 -83 16 -99 19 -63 11 -143 27 -181 36 -22 5 -85 19 -140 31 -79
16 -283 64 -405 94 -193 48 -462 130 -528 162 -94 46 -122 103 -86 179 17 37
108 124 194 187 30 22 57 44 60 47 17 22 371 256 555 367 255 154 696 384
1000 523 135 61 248 110 435 187 113 46 214 88 225 93 11 5 76 30 145 56 69
25 136 51 150 57 14 5 30 11 35 13 6 2 91 33 190 69 196 72 209 76 212 76 1 0
26 9 55 20 48 18 359 121 513 169 99 32 437 122 500 134 11 2 58 13 105 24 77
18 129 27 304 51 32 5 102 9 155 10 52 1 97 4 99 6 2 2 9 2 15 0 7 -2 46 -6
87 -9z"/>
</g>
</svg>
